<svg xmlns="http://www.w3.org/2000/svg" width="1024" height="1024" viewBox="0 0 1024 1024" fill="none">
  <defs>
    <linearGradient id="bg" x1="170" y1="118" x2="848" y2="902" gradientUnits="userSpaceOnUse">
      <stop stop-color="#151515"/>
      <stop offset="0.5" stop-color="#090909"/>
      <stop offset="1" stop-color="#020202"/>
    </linearGradient>
    <linearGradient id="gloss" x1="248" y1="170" x2="510" y2="430" gradientUnits="userSpaceOnUse">
      <stop stop-color="#FFFFFF" stop-opacity="0.16"/>
      <stop offset="1" stop-color="#FFFFFF" stop-opacity="0"/>
    </linearGradient>
    <filter id="shadow" x="86" y="78" width="852" height="888" filterUnits="userSpaceOnUse">
      <feOffset dy="24"/>
      <feGaussianBlur stdDeviation="28"/>
      <feColorMatrix type="matrix" values="0 0 0 0 0.01 0 0 0 0 0.01 0 0 0 0 0.01 0 0 0 0.5 0"/>
    </filter>
  </defs>

  <g filter="url(#shadow)">
    <rect x="138" y="124" width="748" height="748" rx="168" fill="url(#bg)"/>
    <rect x="141" y="127" width="742" height="742" rx="165" stroke="#1C1C1C" stroke-width="6"/>
  </g>

  <path d="M198 176C266 126 374 100 490 102C582 104 664 130 728 176" stroke="url(#gloss)" stroke-width="24" stroke-linecap="round"/>

  <g opacity="0.34">
    <rect x="286" y="290" width="88" height="292" rx="44" fill="#171717"/>
    <rect x="408" y="250" width="88" height="332" rx="44" fill="#171717"/>
    <rect x="530" y="210" width="88" height="372" rx="44" fill="#171717"/>
    <rect x="652" y="326" width="88" height="256" rx="44" fill="#171717"/>
  </g>

  <g opacity="0.92">
    <rect x="306" y="318" width="52" height="232" rx="26" fill="#FBFBFB"/>
    <rect x="430" y="286" width="52" height="264" rx="26" fill="#A3A3A3"/>
    <rect x="554" y="252" width="52" height="298" rx="26" fill="#FBFBFB"/>
    <rect x="678" y="350" width="52" height="200" rx="26" fill="#A3A3A3"/>
  </g>

  <g>
    <circle cx="512" cy="694" r="112" fill="#111111"/>
    <circle cx="512" cy="694" r="109" stroke="#2A2A2A" stroke-width="6"/>
    <path d="M512 628V734" stroke="#FBFBFB" stroke-width="24" stroke-linecap="round"/>
    <path d="M432 690L512 770L592 690" stroke="#60A5FA" stroke-width="24" stroke-linecap="round" stroke-linejoin="round"/>
  </g>
</svg>
