<svg xmlns="http://www.w3.org/2000/svg" width="1024" height="1024" viewBox="0 0 1024 1024" fill="none">
  <defs>
    <linearGradient id="ringFill" x1="234" y1="188" x2="792" y2="834" gradientUnits="userSpaceOnUse">
      <stop stop-color="#8AB4FF" stop-opacity="0.26"/>
      <stop offset="1" stop-color="#A78BFA" stop-opacity="0.06"/>
    </linearGradient>
    <filter id="softArc" x="176" y="132" width="684" height="772" filterUnits="userSpaceOnUse">
      <feGaussianBlur stdDeviation="8"/>
    </filter>
    <filter id="badgeShadow" x="595" y="611" width="318" height="318" filterUnits="userSpaceOnUse">
      <feOffset dy="16"/>
      <feGaussianBlur stdDeviation="18"/>
      <feColorMatrix type="matrix" values="0 0 0 0 0.02 0 0 0 0 0.02 0 0 0 0 0.05 0 0 0 0.44 0"/>
    </filter>
    <linearGradient id="badgeFill" x1="654" y1="670" x2="844" y2="866" gradientUnits="userSpaceOnUse">
      <stop stop-color="#161221" stop-opacity="0.98"/>
      <stop offset="0.58" stop-color="#211834" stop-opacity="0.95"/>
      <stop offset="1" stop-color="#2B1D41" stop-opacity="0.93"/>
    </linearGradient>
    <radialGradient id="badgeSheen" cx="0" cy="0" r="1" gradientUnits="userSpaceOnUse" gradientTransform="translate(726 696) rotate(48) scale(156)">
      <stop stop-color="#F8FAFC" stop-opacity="0.28"/>
      <stop offset="0.45" stop-color="#DDD6FE" stop-opacity="0.08"/>
      <stop offset="1" stop-color="#DDD6FE" stop-opacity="0"/>
    </radialGradient>
  </defs>

  <g opacity="0.44" filter="url(#softArc)">
    <path d="M214 182C329 129 485 116 620 142C713 160 778 198 829 249" stroke="url(#ringFill)" stroke-width="13" stroke-linecap="round"/>
    <path d="M724 819C614 865 466 878 334 855C256 841 200 813 160 777" stroke="url(#ringFill)" stroke-width="9" stroke-linecap="round" opacity="0.72"/>
  </g>

  <g opacity="0.28">
    <path d="M244 260H328" stroke="#60A5FA" stroke-width="8.5" stroke-linecap="round"/>
    <path d="M230 296H296" stroke="#60A5FA" stroke-width="6.5" stroke-linecap="round" opacity="0.45"/>
  </g>

  <g filter="url(#badgeShadow)" opacity="0.82">
    <circle cx="754" cy="769" r="97" fill="#09090F"/>
  </g>

  <g>
    <circle cx="754" cy="769" r="90" fill="url(#badgeFill)"/>
    <circle cx="754" cy="769" r="90" fill="url(#badgeSheen)"/>
    <circle cx="754" cy="769" r="84.5" stroke="#E9D5FF" stroke-opacity="0.2" stroke-width="3"/>

    <path d="M754 712V776" stroke="#F8FAFC" stroke-width="14" stroke-linecap="round"/>
    <path d="M722 746L754 778L786 746" stroke="#F8FAFC" stroke-width="14" stroke-linecap="round" stroke-linejoin="round"/>

    <path d="M710 807C710 800.373 715.373 795 722 795H730.336C734.503 795 738.467 793.173 741.151 790.004L747.127 782.949C751.202 778.137 758.798 778.137 762.873 782.949L768.849 790.004C771.533 793.173 775.497 795 779.664 795H788C794.627 795 800 800.373 800 807V811C800 817.627 794.627 823 788 823H722C715.373 823 710 817.627 710 811V807Z" fill="#F8FAFC" fill-opacity="0.95"/>
    <path d="M725 809H785" stroke="#2A1D3D" stroke-width="4.25" stroke-linecap="round" opacity="0.52"/>
    <circle cx="779" cy="809" r="5.25" fill="#2A1D3D"/>
  </g>
</svg>
